<svg width="240" height="240" viewBox="0 0 240 240" fill="none" xmlns="http://www.w3.org/2000/svg"><g fill-rule="evenodd" clip-rule="evenodd" fill="#fff"><path d="M126.847 122.135V65.227c27.239 3.313 48.368 26.577 48.441 54.699 0 30.479-24.736 55.215-55.214 55.215-1.694 0-3.387-.073-5.08-.221v-47.705a.58.58 0 0 1 .589-.589h6.773c2.429 0 4.491-1.988 4.491-4.491Zm-1.178 27.975a6.912 6.912 0 0 1-6.921-6.92 6.912 6.912 0 0 1 6.921-6.92 6.912 6.912 0 0 1 6.92 6.92 6.912 6.912 0 0 1-6.92 6.92Zm9.276-6.92a6.912 6.912 0 0 0 6.92 6.92 6.912 6.912 0 0 0 6.92-6.92 6.912 6.912 0 0 0-6.92-6.92 6.912 6.912 0 0 0-6.92 6.92Zm16.196 0a6.912 6.912 0 0 0 6.92 6.92 6.912 6.912 0 0 0 6.92-6.92 6.912 6.912 0 0 0-6.92-6.92 6.912 6.912 0 0 0-6.92 6.92Z"/><path d="M64.785 120c0-30.479 24.737-55.215 55.215-55.215h.147v54.626a.58.58 0 0 1-.589.589h-6.92c-2.356.073-4.27 2.061-4.344 4.417v49.546c-24.883-5.374-43.509-27.46-43.509-53.963Zm37.693-16.638a6.913 6.913 0 0 0 6.921 6.92 6.912 6.912 0 0 0 6.92-6.92 6.912 6.912 0 0 0-6.92-6.92 6.913 6.913 0 0 0-6.921 6.92Z"/></g></svg>