<svg width="110" height="110" viewBox="0 0 110 110" fill="none" xmlns="http://www.w3.org/2000/svg">
<g clip-path="url(#clip0_402_14)">
<path fill-rule="evenodd" clip-rule="evenodd" d="M61.8472 57.1351V0.227051C89.0862 3.54005 110.215 26.8041 110.288 54.9261C110.288 85.4051 85.5522 110.141 55.0742 110.141C53.3802 110.141 51.6872 110.068 49.9942 109.92V62.215C49.993 62.1374 50.0074 62.0602 50.0366 61.9882C50.0657 61.9162 50.1091 61.8508 50.164 61.7959C50.219 61.7409 50.2844 61.6976 50.3564 61.6684C50.4284 61.6392 50.5055 61.6248 50.5832 61.6261H57.3562C59.7852 61.6261 61.8472 59.6381 61.8472 57.1351ZM60.6692 85.1101C59.7601 85.1112 58.8597 84.9331 58.0195 84.5857C57.1793 84.2384 56.4159 83.7287 55.773 83.0859C55.1301 82.4431 54.6204 81.6798 54.2729 80.8397C53.9255 79.9996 53.7472 79.0992 53.7482 78.1901C53.7472 77.2809 53.9255 76.3805 54.2729 75.5404C54.6204 74.7003 55.1301 73.937 55.773 73.2942C56.4159 72.6514 57.1793 72.1417 58.0195 71.7944C58.8597 71.447 59.7601 71.2689 60.6692 71.2701C61.5782 71.269 62.4786 71.4473 63.3186 71.7947C64.1587 72.1421 64.9219 72.6517 65.5647 73.2945C66.2075 73.9373 66.7172 74.7006 67.0646 75.5406C67.412 76.3807 67.5903 77.281 67.5892 78.1901C67.5903 79.0991 67.412 79.9994 67.0646 80.8395C66.7172 81.6795 66.2075 82.4428 65.5647 83.0856C64.9219 83.7284 64.1587 84.2381 63.3186 84.5854C62.4786 84.9328 61.5782 85.1111 60.6692 85.1101ZM69.9452 78.1901C69.9442 79.0991 70.1224 79.9994 70.4698 80.8395C70.8172 81.6795 71.3269 82.4428 71.9697 83.0856C72.6125 83.7284 73.3758 84.2381 74.2158 84.5854C75.0558 84.9328 75.9562 85.1111 76.8652 85.1101C77.7743 85.1111 78.6746 84.9328 79.5146 84.5854C80.3547 84.2381 81.1179 83.7284 81.7607 83.0856C82.4035 82.4428 82.9132 81.6795 83.2606 80.8395C83.608 79.9994 83.7863 79.0991 83.7852 78.1901C83.7863 77.281 83.608 76.3807 83.2606 75.5406C82.9132 74.7006 82.4035 73.9373 81.7607 73.2945C81.1179 72.6517 80.3547 72.1421 79.5146 71.7947C78.6746 71.4473 77.7743 71.269 76.8652 71.2701C75.9562 71.269 75.0558 71.4473 74.2158 71.7947C73.3758 72.1421 72.6125 72.6517 71.9697 73.2945C71.3269 73.9373 70.8172 74.7006 70.4698 75.5406C70.1224 76.3807 69.9442 77.281 69.9452 78.1901ZM86.1412 78.1901C86.1402 79.0991 86.3184 79.9994 86.6658 80.8395C87.0132 81.6795 87.5229 82.4428 88.1657 83.0856C88.8085 83.7284 89.5718 84.2381 90.4118 84.5854C91.2518 84.9328 92.1522 85.1111 93.0612 85.1101C93.9703 85.1111 94.8706 84.9328 95.7106 84.5854C96.5507 84.2381 97.3139 83.7284 97.9567 83.0856C98.5995 82.4428 99.1092 81.6795 99.4566 80.8395C99.804 79.9994 99.9823 79.0991 99.9812 78.1901C99.9823 77.281 99.804 76.3807 99.4566 75.5406C99.1092 74.7006 98.5995 73.9373 97.9567 73.2945C97.3139 72.6517 96.5507 72.1421 95.7106 71.7947C94.8706 71.4473 93.9703 71.269 93.0612 71.2701C92.1522 71.269 91.2518 71.4473 90.4118 71.7947C89.5718 72.1421 88.8085 72.6517 88.1657 73.2945C87.5229 73.9373 87.0132 74.7006 86.6658 75.5406C86.3184 76.3807 86.1402 77.281 86.1412 78.1901Z" fill="#00B956"/>
<path fill-rule="evenodd" clip-rule="evenodd" d="M-0.214844 55.0002C-0.214844 24.5212 24.5222 -0.214844 55.0002 -0.214844H55.1472V54.4112C55.1484 54.4888 55.134 54.566 55.1048 54.638C55.0756 54.71 55.0323 54.7754 54.9773 54.8303C54.9224 54.8853 54.857 54.9286 54.785 54.9578C54.713 54.987 54.6358 55.0014 54.5582 55.0002H47.6382C45.2822 55.0732 43.3682 57.0612 43.2942 59.4172V108.963C18.4112 103.589 -0.214844 81.5032 -0.214844 55.0002ZM37.4781 38.3622C37.4772 39.2712 37.6556 40.1716 38.0031 41.0116C38.3506 41.8517 38.8604 42.615 39.5033 43.2577C40.1461 43.9005 40.9095 44.4102 41.7496 44.7576C42.5897 45.1049 43.4901 45.2832 44.3992 45.2822C45.3082 45.2832 46.2085 45.1049 47.0486 44.7575C47.8886 44.4102 48.6519 43.9005 49.2947 43.2577C49.9375 42.6149 50.4472 41.8516 50.7945 41.0116C51.1419 40.1715 51.3202 39.2712 51.3192 38.3622C51.3202 37.4531 51.1419 36.5528 50.7945 35.7127C50.4472 34.8727 49.9375 34.1094 49.2947 33.4666C48.6519 32.8238 47.8886 32.3141 47.0486 31.9668C46.2085 31.6194 45.3082 31.4411 44.3992 31.4422C43.4901 31.4411 42.5897 31.6194 41.7496 31.9667C40.9095 32.3141 40.1461 32.8238 39.5033 33.4666C38.8604 34.1093 38.3506 34.8726 38.0031 35.7127C37.6556 36.5527 37.4772 37.4531 37.4781 38.3622Z" fill="#00B956"/>
</g>
<defs>
<clipPath id="clip0_402_14">
<rect width="110" height="110" fill="white"/>
</clipPath>
</defs>
</svg>
